<?xml version="1.0" encoding="UTF-8"?>
<svg version="1.1" xmlns="http://www.w3.org/2000/svg" width="59" height="46">
<path d="M0 0 C5.63212192 3.40827979 9.39832803 8.24576416 11.5 14.4375 C11.91527499 18.97119548 11.82440068 23.51167935 11.8125 28.0625 C11.82861328 29.30257813 11.84472656 30.54265625 11.86132812 31.8203125 C11.86197266 33.00625 11.86261719 34.1921875 11.86328125 35.4140625 C11.86626221 36.49768066 11.86924316 37.58129883 11.87231445 38.69775391 C11.5 41.4375 11.5 41.4375 10.25537109 43.2956543 C8.02860599 44.74413557 6.69548595 44.78371784 4.05078125 44.73046875 C3.20322266 44.72080078 2.35566406 44.71113281 1.48242188 44.70117188 C0.60134766 44.67603516 -0.27972656 44.65089844 -1.1875 44.625 C-2.08017578 44.61146484 -2.97285156 44.59792969 -3.89257812 44.58398438 C-6.09566166 44.54864079 -8.29752582 44.49930493 -10.5 44.4375 C-10.60845031 41.87385517 -10.68749744 39.31483721 -10.75 36.75 C-10.80027344 35.6681543 -10.80027344 35.6681543 -10.8515625 34.56445312 C-10.92239642 30.68629591 -10.75919658 28.85485043 -8.65625 25.46875 C-6.22996244 23.18311679 -4.78098889 22.71091574 -1.5 22.4375 C-1.5 21.7775 -1.5 21.1175 -1.5 20.4375 C-2.61375 20.3446875 -2.61375 20.3446875 -3.75 20.25 C-7.37129113 19.18007307 -8.48712115 17.56864488 -10.5 14.4375 C-10.5 13.4475 -10.5 12.4575 -10.5 11.4375 C-11.16 11.4375 -11.82 11.4375 -12.5 11.4375 C-12.5928125 12.55125 -12.5928125 12.55125 -12.6875 13.6875 C-13.79565606 17.43818205 -15.18982222 18.38170538 -18.5 20.4375 C-21.29363933 20.90471394 -23.99027122 20.81864915 -26.8125 20.6875 C-27.92334961 20.66042969 -27.92334961 20.66042969 -29.05664062 20.6328125 C-30.8716571 20.58597337 -32.68600166 20.51423789 -34.5 20.4375 C-34.46632602 13.1639212 -32.5945274 8.64995628 -27.5 3.4375 C-20.15041509 -2.67537591 -8.78036173 -3.98952358 0 0 Z " fill="#5E6EFE" transform="translate(34.5,1.5625)"/>
<path d="M0 0 C2.56364483 -0.10845031 5.12266279 -0.18749744 7.6875 -0.25 C8.40873047 -0.28351562 9.12996094 -0.31703125 9.87304688 -0.3515625 C13.77954343 -0.42291404 15.56934334 -0.27534719 18.95703125 1.890625 C22.6367091 5.68990997 22.11890612 9.10051637 22.0625 14.125 C22.05798828 14.87910156 22.05347656 15.63320313 22.04882812 16.41015625 C22.03703499 18.27347127 22.01909942 20.13674555 22 22 C18.89601022 22.08710289 15.79233452 22.14042309 12.6875 22.1875 C11.80642578 22.21263672 10.92535156 22.23777344 10.01757812 22.26367188 C8.74624023 22.27817383 8.74624023 22.27817383 7.44921875 22.29296875 C6.66893311 22.3086792 5.88864746 22.32438965 5.0847168 22.34057617 C3 22 3 22 1.24023438 20.75976562 C-0.33227736 18.52853244 -0.34758074 17.26317684 -0.29296875 14.55078125 C-0.28330078 13.70322266 -0.27363281 12.85566406 -0.26367188 11.98242188 C-0.23853516 11.10134766 -0.21339844 10.22027344 -0.1875 9.3125 C-0.17396484 8.41982422 -0.16042969 7.52714844 -0.14648438 6.60742188 C-0.11114079 4.40433834 -0.06180493 2.20247418 0 0 Z " fill="#5E6EFE" transform="translate(0,24)"/>
<path d="M0 0 C1.65 0 3.3 0 5 0 C5 1.65 5 3.3 5 5 C3.35 4.67 1.7 4.34 0 4 C0 2.68 0 1.36 0 0 Z " fill="#5B70FE" transform="translate(41,0)"/>
</svg>
